<?xml version="1.0" encoding="UTF-8" standalone="no"?>
<svg
   xmlns:dc="http://purl.org/dc/elements/1.1/"
   xmlns:cc="http://creativecommons.org/ns#"
   xmlns:rdf="http://www.w3.org/1999/02/22-rdf-syntax-ns#"
   xmlns:svg="http://www.w3.org/2000/svg"
   xmlns="http://www.w3.org/2000/svg"
   xmlns:sodipodi="http://sodipodi.sourceforge.net/DTD/sodipodi-0.dtd"
   xmlns:inkscape="http://www.inkscape.org/namespaces/inkscape"
   width="1350"
   height="1120"
   viewBox="0 0 1108 135.2"
   version="1.1"
   id="svg3015"
   inkscape:version="0.48.4 r9939"
   sodipodi:docname="FunimationLogo.svg">
  <metadata
     id="metadata3043">
    <rdf:RDF>
      <cc:Work
         rdf:about="">
        <dc:format>image/svg+xml</dc:format>
        <dc:type
           rdf:resource="http://purl.org/dc/dcmitype/StillImage" />
        <dc:title />
      </cc:Work>
    </rdf:RDF>
  </metadata>
  <defs
     id="defs3041" />
  <sodipodi:namedview
     pagecolor="#ffffff"
     bordercolor="#666666"
     borderopacity="1"
     objecttolerance="10"
     gridtolerance="10"
     guidetolerance="10"
     inkscape:pageopacity="0"
     inkscape:pageshadow="2"
     inkscape:window-width="1024"
     inkscape:window-height="712"
     id="namedview3039"
     showgrid="false"
     inkscape:zoom="0.57307692"
     inkscape:cx="773.28554"
     inkscape:cy="88.104027"
     inkscape:window-x="-4"
     inkscape:window-y="-4"
     inkscape:window-maximized="1"
     inkscape:current-layer="#000000ff"
     showguides="true"
     inkscape:guide-bbox="true" />
  <g
     id="#ffffffff"
     transform="translate(0,-340.8)" />
  <g
     id="#000000ff"
     transform="translate(-9.7718121,-188.63893)">
    <path
       d="m 566.16524,281.22597 c 16.54,-26.44 33.07,-52.9 49.58,-79.36 10.67,0.57 21.33,1.26 32,1.83 13.07,28.2 26.15,56.41 39.21,84.62 -9.21,-0.52 -18.42,-1.11 -27.63,-1.58 -2.42,-4.65 -4.77,-9.34 -7.03,-14.07 -16.68,-1.05 -33.37,-2.12 -50.06,-2.87 -2.7,4.44 -5.75,8.67 -8.55,13.04 -9.18,-0.5 -18.35,-1.04 -27.52,-1.61 m 46.97,-30.82 c 10.39,0.59 20.78,1.26 31.18,1.8 -4.76,-9.83 -9.4,-19.72 -14.08,-29.58 -5.74,9.23 -11.4,18.52 -17.1,27.78 z"
       id="path3019"
       inkscape:connector-curvature="0"
       style="fill:#858383cd" />
    <path
       d="m 335.08524,212.82597 c 8.33,-0.56 16.67,-1.12 25.01,-1.68 1.79,27.34 3.67,54.67 5.45,82 -12.24,0.69 -24.48,1.87 -36.72,2.27 -17.78,-18.52 -35.28,-37.32 -52.9,-55.99 1.23,19.82 2.77,39.63 3.85,59.46 -8.34,0.52 -16.69,1.09 -25.03,1.66 -1.8,-27.33 -3.62,-54.65 -5.47,-81.98 11.87,-0.81 23.75,-1.58 35.62,-2.39 1.49,-0.56 2.4,0.87 3.31,1.74 16.92,18.27 33.89,36.5 50.86,54.73 -1.32,-19.94 -2.65,-39.88 -3.98,-59.82 z"
       id="path3021"
       inkscape:connector-curvature="0"
       style="fill:#858383cd" />
    <path
       d="m 1051.4152,213.26597 c 8.32,-0.84 16.63,-1.68 24.96,-2.5 2.7,27.25 5.45,54.5 8.19,81.74 -12.23,1.23 -24.45,2.49 -36.68,3.68 -18.17,-18.18 -36.49,-36.2 -54.69996,-54.34 1.97,19.75 3.95,39.5 5.96,59.24 -8.36,0.86 -16.72,1.68 -25.08,2.52 -2.74,-27.26 -5.46,-54.51 -8.19,-81.76 12.36,-1.23 24.71,-2.48 37.05996,-3.72 18.13,18.31 36.35,36.52 54.47,54.85 -1.99,-19.91 -4.02,-39.8 -5.99,-59.71 z"
       id="path3023"
       inkscape:connector-curvature="0"
       style="fill:#858383cd" />
    <path
       d="m 26.435235,224.03597 c 29.85,-1.95 59.69,-3.93 89.540005,-5.85 0.41,6.68 0.84,13.36 1.32,20.04 -21.480005,1.42 -42.960005,2.82 -64.430005,4.23 0.34,4.83 0.61,9.67 0.98,14.5 20.21,-1.35 40.42,-2.63 60.620005,-3.99 0.52,6.65 0.89,13.31 1.35,19.97 -20.230005,1.33 -40.470005,2.62 -60.700005,4 0.64,9.14 1.18,18.29 1.82,27.43 -8.38,0.57 -16.76,1.08 -25.14,1.66 -1.78,-27.33 -3.59,-54.66 -5.36,-81.99 z"
       id="path3025"
       inkscape:connector-curvature="0"
       style="fill:#858383cd" />
    <path
       d="m 682.73524,225.31597 c 31.16,-2.48 62.32,-4.96 93.47,-7.45 0.53,6.72 1.1,13.43 1.59,20.16 -11.38,0.91 -22.77,1.82 -34.15,2.71 1.63,20.59 3.27,41.17 4.93,61.76 -8.37,0.7 -16.75,1.33 -25.11,2.01 -1.67,-20.58 -3.29,-41.17 -4.95,-61.75 -11.39,0.92 -22.79,1.82 -34.18,2.73 -0.52,-6.73 -1.1,-13.45 -1.6,-20.17 z"
       id="path3027"
       inkscape:connector-curvature="0"
       style="fill:#858383cd" />
    <path
       d="m 795.90524,217.64597 c 8.35,0.92 16.69,1.86 25.04,2.8 -3.06,27.21 -6.1,54.42 -9.15,81.64 -8.35,-0.89 -16.69,-1.89 -25.03,-2.79 3.04,-27.22 6.08,-54.44 9.14,-81.65 z"
       id="path3029"
       inkscape:connector-curvature="0"
       style="fill:#858383cd" />
    <path
       d="m 900.43524,221.30597 c 9.25,-0.56 18.6,-1.42 27.84,-0.23 6.17,0.78 12.38,3.72 15.66,9.22 5,8.08 4.72,17.92 5.42,27.06 0.34,7.66 1.37,15.31 0.96,22.99 -0.36,6.31 -2.44,12.98 -7.54,17.06 -5.85,4.75 -13.63,5.84 -20.87,6.71 -11.54,1.11 -23.13,1.57 -34.68,2.4 -9.24,0.51 -18.58,1.51 -27.79,0.1 -6.36,-0.93 -12.59,-4.34 -15.79,-10.08 -4.21,-7.44 -4.03,-16.27 -4.64,-24.54 -0.4,-8.22 -1.44,-16.42 -1,-24.65 0.32,-6.28 2.43,-12.89 7.5,-16.93 5.98,-4.78 13.87,-5.9 21.24,-6.77 11.2,-1.09 22.46,-1.54 33.69,-2.34 m -8.53,21.25 c -7.71,0.77 -16.01,0.1 -23.07,3.81 -5.81,3.55 -5.14,11.23 -4.69,17.09 0.72,6.04 -0.28,12.85 3.47,18.09 3.88,4.67 10.61,4.49 16.16,4.43 9.06,-0.6 18.16,-0.87 27.18,-1.95 4.7,-0.7 10.28,-2.17 12.36,-6.97 2.42,-6.3 0.51,-13.14 0.47,-19.67 -0.17,-5.3 -1.35,-11.89 -6.9,-14.12 -8.03,-2.86 -16.69,-0.92 -24.98,-0.71 z"
       id="path3031"
       inkscape:connector-curvature="0"
       style="fill:#858383cd" />
    <path
       d="m 423.70524,222.75597 c 12.35,0.03 24.69,0.02 37.04,0 9.79,17.04 19.5,34.12 29.22,51.2 9.99,-17.07 19.76,-34.26 29.9,-51.24 12.14,0.13 24.28,0.01 36.43,0.06 -0.02,27.42 -0.01,54.83 -0.01,82.24 -8.12,0.02 -16.25,-0.01 -24.37,0.01 -0.03,-19.4 0.04,-38.79 -0.04,-58.19 -11.29,19.35 -22.5,38.75 -33.69,58.15 -5.5,0.07 -10.99,0.02 -16.48,0.03 -11.19,-19.42 -22.34,-38.86 -33.55,-58.26 0.02,19.41 -0.01,38.83 0.02,58.25 -8.18,-0.01 -16.37,0.09 -24.54,-0.05 0.09,-27.4 -0.05,-54.8 0.07,-82.2 z"
       id="path3033"
       inkscape:connector-curvature="0"
       style="fill:#858383cd" />
    <path
       d="m 129.69524,229.01597 c 8.38,0.34 16.76,0.66 25.14,0.91 -0.55,16.49 -1.19,32.98 -1.77,49.47 -0.13,4.06 0.53,9.02 4.47,11.18 4.34,2.31 9.41,2.33 14.2,2.64 6.99,0.19 13.99,0.71 20.99,0.52 3.47,-0.19 7.4,-0.88 9.7,-3.76 2.08,-2.7 2.49,-6.23 2.64,-9.53 0.59,-16.2 1.14,-32.4 1.76,-48.6 8.37,0.25 16.73,0.6 25.1,0.88 -0.62,19.57 -1.33,39.13 -2.12,58.69 -0.35,7.6 -3.42,15.93 -10.64,19.49 -9.37,4.7 -20.24,3.78 -30.39,3.49 -11.79,-0.59 -23.64,-0.43 -35.39,-1.79 -7.32,-1.03 -15.3,-2.64 -20.58,-8.25 -4.71,-5.05 -5.38,-12.38 -5.14,-18.96 0.65,-18.8 1.35,-37.59 2.03,-56.38 z"
       id="path3035"
       inkscape:connector-curvature="0"
       style="fill:#858383cd" />
    <path
       d="m 378.42524,233.11597 c 8.37,-0.55 16.73,-1.11 25.1,-1.64 1.84,27.31 3.67,54.64 5.43,81.96 -8.37,0.55 -16.74,1.11 -25.1,1.67 -1.8,-27.33 -3.64,-54.65 -5.43,-81.99 z"
       id="path3037"
       inkscape:connector-curvature="0"
       style="fill:#858383cd" />
  </g>
  <path
     style="fill:none;stroke:#999999;stroke-width:0.80000001;stroke-opacity:1"
     d="m 1099.4638,90.652924 c 0,3.86648 -3.1344,7.00089 -7.0009,7.00089 -3.8665,0 -7.0009,-3.13441 -7.0009,-7.00089 0,-3.86649 3.1344,-7.0009 7.0009,-7.0009 3.8665,0 7.0009,3.13441 7.0009,7.0009 z"
     id="path3823"
     inkscape:connector-curvature="0" />
  <g
     id="g3836"
     style="fill:#858383cd;fill-opacity:0.48663103"
     transform="translate(-73.986577,-191.43088)">
    <g
       transform="matrix(0.8,0,0,0.8,-19.400056,8.9408952)"
       style="font-size:6px;text-align:center;line-height:125%;letter-spacing:0px;word-spacing:0px;text-anchor:middle;color:#858383cd;fill:#333333;fill-opacity:0.48663103;fill-rule:nonzero;stroke:#858383cd;stroke-width:1.25;stroke-linecap:butt;stroke-linejoin:miter;stroke-miterlimit:4;stroke-opacity:1;stroke-dashoffset:0;marker:none;visibility:visible;display:inline;overflow:visible;enable-background:accumulate"
       id="flowRoot3825">
      <path
         d="m 1477.4609,346.90043 0,-11.45313 5.0782,0 c 1.0208,1e-5 1.7968,0.10288 2.3281,0.30859 0.5312,0.20574 0.9557,0.56903 1.2734,1.08985 0.3177,0.52084 0.4766,1.09636 0.4766,1.72656 0,0.81251 -0.263,1.4974 -0.7891,2.05469 -0.526,0.5573 -1.3385,0.91146 -2.4375,1.0625 0.4011,0.19271 0.7057,0.38282 0.9141,0.57031 0.4427,0.40625 0.862,0.91407 1.2578,1.52344 l 1.9922,3.11719 -1.9063,0 -1.5156,-2.38282 c -0.4427,-0.68749 -0.8073,-1.21353 -1.0937,-1.57812 -0.2865,-0.36458 -0.543,-0.61979 -0.7696,-0.76563 -0.2265,-0.14583 -0.457,-0.24739 -0.6914,-0.30468 -0.1719,-0.0365 -0.4531,-0.0547 -0.8437,-0.0547 l -1.7578,0 0,5.08594 z m 1.5157,-6.39844 3.2578,0 c 0.6927,0 1.2343,-0.0716 1.625,-0.21485 0.3906,-0.14322 0.6875,-0.37238 0.8906,-0.6875 0.2031,-0.31509 0.3047,-0.65754 0.3047,-1.02734 0,-0.54166 -0.1966,-0.98697 -0.5899,-1.33594 -0.3932,-0.34895 -1.0143,-0.52342 -1.8632,-0.52343 l -3.625,0 z"
         style="font-size:16px;fill:#858383cd;fill-opacity:0.48663103;stroke:none;marker:none"
         id="path3949"
         inkscape:connector-curvature="0" />
    </g>
    <g
       transform="matrix(0.8,0,0,0.8,0.95459415,-1.5909903)"
       style="font-size:4px;line-height:125%;letter-spacing:0px;word-spacing:0px;color:#858383cd;fill:#858383cd;fill-opacity:0.48663103;fill-rule:nonzero;stroke:#ffffff;stroke-width:1.25;stroke-linecap:butt;stroke-linejoin:miter;stroke-miterlimit:4;stroke-opacity:1;stroke-dashoffset:0;marker:none;visibility:visible;display:inline;overflow:visible;enable-background:accumulate"
       id="flowRoot3006">
      <path
         d="m 1456.082,361.27979 0,-0.40039 0.4004,0 0,0.40039 z"
         style="fill:#858383cd;fill-opacity:0.48663103;marker:none"
         id="path3952"
         inkscape:connector-curvature="0" />
    </g>
  </g>
  <rect
     style="opacity:0;fill:#858383cd;fill-opacity:1;stroke:#858383cd;stroke-width:0.80000001;stroke-opacity:1"
     id="rect3864"
     width="12.074026"
     height="11.636957"
     x="1251.4919"
     y="-63.119972" />
  <rect
     style="opacity:0;fill:#858383cd;fill-opacity:1;stroke:#858383cd;stroke-width:0.80000001;stroke-opacity:1"
     id="rect3866"
     width="8.4682083"
     height="7.5940704"
     x="1258.1027"
     y="-56.727856" />
  <rect
     style="opacity:0;fill:#858383cd;fill-opacity:1;stroke:#858383cd;stroke-width:0.80000001;stroke-opacity:1"
     id="rect3868"
     width="13.986201"
     height="10.598919"
     x="1253.5134"
     y="-58.366844" />
  <rect
     style="opacity:0;fill:#858383cd;fill-opacity:1;stroke:#858383cd;stroke-width:0.80000001;stroke-opacity:1"
     id="rect3870"
     width="18.029089"
     height="18.083721"
     x="1250.7816"
     y="-63.884838" />
  <rect
     style="opacity:0;fill:#858383cd;fill-opacity:1;stroke:#858383cd;stroke-width:0.80000001;stroke-opacity:1"
     id="rect3872"
     width="20.870037"
     height="8.0311394"
     x="1251.1642"
     y="-66.343361" />
  <rect
     style="opacity:0;fill:#858383cd;fill-opacity:1;stroke:#858383cd;stroke-width:0.80000001;stroke-opacity:1"
     id="rect3874"
     width="1.4205137"
     height="8.7412958"
     x="1247.613"
     y="-93.714798" />
  <rect
     style="opacity:0;fill:#858383cd;fill-opacity:1;stroke:#858383cd;stroke-width:0.80000001;stroke-opacity:1"
     id="rect3876"
     width="1.0926721"
     height="7.2116356"
     x="1250.4539"
     y="-90.873856" />
  <rect
     style="opacity:0;fill:#858383cd;fill-opacity:1;stroke:#858383cd;stroke-width:0.80000001;stroke-opacity:1"
     id="rect3878"
     width="5.5179939"
     height="4.0975199"
     x="1250.6725"
     y="-84.153908" />
  <rect
     style="opacity:0;fill:#858383cd;fill-opacity:1;stroke:#858383cd;stroke-width:0.80000001;stroke-opacity:1"
     id="rect3880"
     width="8.1404057"
     height="2.3492448"
     x="1258.4851"
     y="-81.367599" />
  <rect
     style="opacity:0;fill:#858383cd;fill-opacity:1;stroke:#858383cd;stroke-width:0.80000001;stroke-opacity:1"
     id="rect3882"
     width="6.8838339"
     height="8.2496738"
     x="1259.7961"
     y="-92.51284" />
  <rect
     style="opacity:0;fill:#858383cd;fill-opacity:1;stroke:#858383cd;stroke-width:0.80000001;stroke-opacity:1"
     id="rect3884"
     width="6.6106658"
     height="5.5726271"
     x="1252.4207"
     y="-92.622116" />
  <rect
     style="opacity:0;fill:#858383cd;fill-opacity:1;stroke:#858383cd;stroke-width:0.80000001;stroke-opacity:1"
     id="rect3886"
     width="2.6770465"
     height="7.2662687"
     x="1252.4207"
     y="-86.120728" />
  <rect
     style="opacity:0;fill:#858383cd;fill-opacity:1;stroke:#858383cd;stroke-width:0.80000001;stroke-opacity:1"
     id="rect3888"
     width="6.7745667"
     height="0.38243523"
     x="1258.5944"
     y="-78.144211" />
  <rect
     style="opacity:0;fill:#858383cd;fill-opacity:1;stroke:#858383cd;stroke-width:0.80000001;stroke-opacity:1"
     id="rect3890"
     width="0.27316803"
     height="2.076077"
     x="1268.0459"
     y="-80.165649" />
  <rect
     style="opacity:0;fill:#858383cd;fill-opacity:1;stroke:#858383cd;stroke-width:0.80000001;stroke-opacity:1"
     id="rect3892"
     width="3.8243523"
     height="4.8623905"
     x="1264.3855"
     y="-86.830956" />
  <rect
     style="opacity:0;fill:#858383cd;fill-opacity:1;stroke:#858383cd;stroke-width:0.80000001;stroke-opacity:1"
     id="rect3894"
     width="4.2067876"
     height="2.1307104"
     x="1259.1952"
     y="-89.781174" />
  <rect
     style="opacity:0;fill:#858383cd;fill-opacity:1;stroke:#858383cd;stroke-width:0.80000001;stroke-opacity:1"
     id="rect3896"
     width="3.0594819"
     height="1.6390082"
     x="1254.2782"
     y="-92.2397" />
  <rect
     style="opacity:0;fill:#858383cd;fill-opacity:1;stroke:#858383cd;stroke-width:0.80000001;stroke-opacity:1"
     id="rect3898"
     width="0.2185344"
     height="0.16390081"
     x="1253.0217"
     y="-92.949928" />
  <path
     sodipodi:type="arc"
     style="opacity:0;fill:#858383cd;fill-opacity:1;stroke:#858383cd;stroke-opacity:1"
     id="path3900"
     sodipodi:cx="1571.0575"
     sodipodi:cy="318.48569"
     sodipodi:rx="4.643856"
     sodipodi:ry="2.8682642"
     d="m 1575.7014,318.48569 a 4.643856,2.8682642 0 1 1 -9.2878,0 4.643856,2.8682642 0 1 1 9.2878,0 z"
     transform="matrix(0.8,0,0,0.8,0,-340.8)" />
  <path
     sodipodi:type="arc"
     style="opacity:0;fill:#858383cd;fill-opacity:1;stroke:#858383cd;stroke-opacity:1"
     id="path3902"
     sodipodi:cx="1575.6331"
     sodipodi:cy="324.87097"
     sodipodi:rx="0.136584"
     sodipodi:ry="3.4487462"
     d="m 1575.7696,324.87097 a 0.136584,3.4487462 0 1 1 -0.2731,0 0.136584,3.4487462 0 1 1 0.2731,0 z"
     transform="matrix(0.8,0,0,0.8,0,-340.8)" />
  <path
     sodipodi:type="arc"
     style="opacity:0;fill:#858383cd;fill-opacity:1;stroke:#858383cd;stroke-opacity:1"
     id="path3904"
     sodipodi:cx="1589.0867"
     sodipodi:cy="334.36359"
     sodipodi:rx="8.6730843"
     sodipodi:ry="4.5414181"
     d="m 1597.7598,334.36359 a 8.6730843,4.5414181 0 1 1 -17.3462,0 8.6730843,4.5414181 0 1 1 17.3462,0 z"
     transform="matrix(0.8,0,0,0.8,0,-340.8)" />
  <rect
     style="opacity:0;fill:#858383cd;fill-opacity:1;stroke:#858383cd;stroke-width:0.80000001;stroke-opacity:1"
     id="rect3906"
     width="117.13445"
     height="136.36546"
     x="1269.2478"
     y="-235.43436" />
  <rect
     style="opacity:0;fill:#858383cd;fill-opacity:1;stroke:#858383cd;stroke-width:0.80000001;stroke-opacity:1"
     id="rect3908"
     width="120.631"
     height="117.13445"
     x="1318.1995"
     y="-158.51024" />
  <rect
     style="opacity:0;fill:#858383cd;fill-opacity:1;stroke:#858383cd;stroke-width:0.80000001;stroke-opacity:1"
     id="rect3910"
     width="12.237926"
     height="48.951706"
     x="1583.9374"
     y="140.44482" />
  <rect
     style="opacity:0;fill:#858383cd;fill-opacity:1;stroke:#858383cd;stroke-width:0.80000001;stroke-opacity:1"
     id="rect3912"
     width="148.60339"
     height="155.5965"
     x="1307.7098"
     y="-233.68608" />
  <path
     sodipodi:type="star"
     style="opacity:0;fill:#858383cd;fill-opacity:1;stroke:#858383cd;stroke-opacity:1"
     id="path3930"
     sodipodi:sides="5"
     sodipodi:cx="1562.521"
     sodipodi:cy="407.06042"
     sodipodi:r1="120.53119"
     sodipodi:r2="60.265594"
     sodipodi:arg1="1.9614034"
     sodipodi:arg2="2.5897219"
     inkscape:flatsided="false"
     inkscape:rounded="0"
     inkscape:randomized="0"
     d="m 1516.6288,518.51297 -5.4267,-79.85643 -68.8603,-40.80149 74.2711,-29.83804 17.5255,-78.09837 51.3287,61.41551 79.6917,-7.46596 -42.5482,67.79492 31.7266,73.48415 -77.6249,-19.51594 z"
     transform="matrix(0.8,0,0,0.8,0,-340.8)"
     inkscape:transform-center-x="8.7706976"
     inkscape:transform-center-y="-2.8446154" />
</svg>
